<svg xmlns="http://www.w3.org/2000/svg" viewBox="0 0 485.35 143.52"><defs><style>.cls-1{fill:#231f20;}</style></defs><title>gametitleAsset 3</title><g id="Layer_2" data-name="Layer 2"><g id="Layer_1-2" data-name="Layer 1"><path class="cls-1" d="M48.41,50.15H68.47v10H42.39a4,4,0,0,1-4-4V0h10Z"/><path class="cls-1" d="M87.1,10v15h20.06v10H87.1v15h20.06v10H81.08a4,4,0,0,1-4-4V4a4,4,0,0,1,4-4h26.08V10Z"/><path class="cls-1" d="M145.84,4V60.18h-10V41.32a28.46,28.46,0,0,1-10,4.21V60.18h-10V4a4,4,0,0,1,4-4h22.06a3.91,3.91,0,0,1,.91.11A4,4,0,0,1,145.84,4Zm-10,23.24V10h-10V35.16A18.64,18.64,0,0,0,135.81,27.25Z"/><path class="cls-1" d="M184.53,4V29.76a28.81,28.81,0,0,1-20.06,15.77V60.18h-10V4a4,4,0,0,1,4-4h22.07a3.82,3.82,0,0,1,.9.11A4,4,0,0,1,184.53,4Zm-10,23.24V10h-10V35.16A18.68,18.68,0,0,0,174.5,27.25Z"/><path class="cls-1" d="M253.19,10h-15V60.18h-10V10h-15V0h40.11Z"/><path class="cls-1" d="M291.91,0V60.18h-10V41.32a28.61,28.61,0,0,1-10,4.21V60.18h-10V0h10V35.16a18.71,18.71,0,0,0,10-7.91V0Z"/><path class="cls-1" d="M330.6,4V29.76a28.75,28.75,0,0,1-4.48,6.72L330.6,45V60.18h-10V45l-1.45-2.75a28.43,28.43,0,0,1-8.58,3.31V60.18h-10V0h26.07a3.84,3.84,0,0,1,.91.11A4,4,0,0,1,330.6,4ZM310.54,35.16a18.71,18.71,0,0,0,10-7.91V10h-10Z"/><path class="cls-1" d="M343.21,0h22.06a4,4,0,0,1,4,4V56.17a4,4,0,0,1-4,4H343.21a4,4,0,0,1-4-4V4A4,4,0,0,1,343.21,0Zm16,10h-10V50.15h10Z"/><path class="cls-1" d="M408,0V56.17a4,4,0,0,1-4,4H381.89a4,4,0,0,1-4-4V0h10V50.15h10V0Z"/><path class="cls-1" d="M436.63,20.27V10h-10V50.15h10v-10a28.68,28.68,0,0,1-5,.73V30.82h15V56.17a4,4,0,0,1-4,4H416.57V0h26.08a4,4,0,0,1,4,4v7.45A18.66,18.66,0,0,1,436.63,20.27Z"/><path class="cls-1" d="M485.35,0V60.18h-10V41.32a28.61,28.61,0,0,1-10,4.21V60.18h-10V0h10V35.16a18.71,18.71,0,0,0,10-7.91V0Z"/><path class="cls-1" d="M64.63,93.33v15H80.68a4,4,0,0,1,4,4v27.13a4,4,0,0,1-4,4H54.6v-10H74.66V118.4h-16a4,4,0,0,1-4-4V87.31a4,4,0,0,1,4-4H84.69v10Z"/><path class="cls-1" d="M123.38,87.36V113.1a28.74,28.74,0,0,1-20.06,15.77v14.65h-10V87.36a4,4,0,0,1,4-4h22.06a3.91,3.91,0,0,1,.91.11A4,4,0,0,1,123.38,87.36Zm-10,23.23V93.37h-10V118.5A18.61,18.61,0,0,0,113.34,110.59Z"/><path class="cls-1" d="M162.06,87.36v56.16H152V124.67a28.62,28.62,0,0,1-10,4.2v14.65H132V87.36a4,4,0,0,1,4-4h22.06a3.91,3.91,0,0,1,.91.11A4,4,0,0,1,162.06,87.36Zm-10,23.23V93.37H142V118.5A18.59,18.59,0,0,0,152,110.59Z"/><path class="cls-1" d="M190.72,114.05h10v25.46a4,4,0,0,1-4,4H170.66V83.34h26.08a4,4,0,0,1,4,4v7.45a18.68,18.68,0,0,1-10,8.8V93.37h-10v40.12h10Z"/><path class="cls-1" d="M219.38,93.37v15h20.06v10H219.38v15h20.06v10H213.36a4,4,0,0,1-4-4V87.36a4,4,0,0,1,4-4h26.08v10Z"/><path class="cls-1" d="M378.7,93.37H363.65v50.15h-10V93.37h-15v-10H378.7Z"/><path class="cls-1" d="M387.32,143.52V83.34h10v60.18Z"/><path class="cls-1" d="M438.34,83.34h7.88v60.18h-10V98.42l-5.07,7.64-1.68,2.51a4,4,0,0,1-6.68,0l-1.67-2.51L416,98.42v45.1H406V83.34h7.88a4,4,0,0,1,3.34,1.79l8.9,13.39L435,85.13A4,4,0,0,1,438.34,83.34Z"/><path class="cls-1" d="M464.84,93.37v15H484.9v10H464.84v15H484.9v10H458.82a4,4,0,0,1-4-4V87.35a4,4,0,0,1,4-4H484.9v10Z"/><path class="cls-1" d="M15.83,3.16V32.72H10.56V22.8A15.08,15.08,0,0,1,5.28,25v7.71H0V3.16A2.12,2.12,0,0,1,2.11,1.05H13.72a1.86,1.86,0,0,1,.48.06A2.09,2.09,0,0,1,15.83,3.16ZM10.56,15.39V6.33H5.28V19.55A9.8,9.8,0,0,0,10.56,15.39Z"/><path class="cls-1" d="M278.83,84.5v29.56h-5.28v-9.92a14.85,14.85,0,0,1-5.27,2.21v7.71H263V84.5a2.11,2.11,0,0,1,2.11-2.11h11.61a1.91,1.91,0,0,1,.48.06A2.11,2.11,0,0,1,278.83,84.5Zm-5.28,12.23V87.67h-5.27V100.9A9.8,9.8,0,0,0,273.55,96.73Z"/><path class="cls-1" d="M299.2,82.39v31.67h-3.76a2.1,2.1,0,0,1-2-1.44l-4.8-14.39v15.83h-5.28V82.39h3.76a2.1,2.1,0,0,1,2,1.45l4.8,14.39V82.39Z"/><path class="cls-1" d="M317.45,82.39a2.12,2.12,0,0,1,2.11,2.11V112a2.11,2.11,0,0,1-2.11,2.11H303.72V82.39Zm-3.17,5.28H309v21.12h5.28Z"/><rect y="40.72" width="16.86" height="7.58"/><rect x="263.07" y="122.06" width="57.76" height="7.58"/></g></g></svg>